# xmcd
#
# Track frame offsets:
#	150
#	14618
#	26718
#	39020
#	44733
#	58832
#	72652
#	86685
#	98865
#	112163
#	134562
#	147926
#	158723
#	173358
#	185402
#	200257
#	211228
#	227218
#	241554
#	256356
#
# Disc length: 3572
#
# Revision: 1
# Processed by: cddbd v1.5.1PL0 Copyright (c) Steve Scherf et al.
# Submitted via: CDex 1.51
# Normalized: r0:TRMNUM
#
DISCID=1d0df214
DTITLE=Dolly Parton - The Essential Dolly Parton Vol. 2
DYEAR=1992
DGENRE=Country
TTITLE0=Mule Skinner Blues (Blue Yodel No. 8)
TTITLE1=Touch Your Woman
TTITLE2=The Bargain Store
TTITLE3=Coat Of Many Colors
TTITLE4=My Tennessee Mountain Home
TTITLE5=Joshua
TTITLE6=Just Because I'm A Woman
TTITLE7=Jolene
TTITLE8=I Will Always Love You (Original Version)
TTITLE9=Light Of A Clear Blue Morning
TTITLE10=Here You Come Again
TTITLE11=Love Is Like A Butterfly
TTITLE12=We Used To
TTITLE13=Me And Little Andy
TTITLE14=It's All Wrong, But It's All Right
TTITLE15=All I Can Do
TTITLE16=Heartbreaker
TTITLE17=I Really Got The Feeling
TTITLE18=The Seeker
TTITLE19=Wings Of A Dove
EXTD=YEAR: 1992
EXTT0=
EXTT1=
EXTT2=
EXTT3=
EXTT4=
EXTT5=
EXTT6=
EXTT7=
EXTT8=
EXTT9=
EXTT10=
EXTT11=
EXTT12=
EXTT13=
EXTT14=
EXTT15=
EXTT16=
EXTT17=
EXTT18=
EXTT19=
PLAYORDER=
